<svg width="130" height="93" viewBox="0 0 130 93" fill="none" xmlns="http://www.w3.org/2000/svg">
<path d="M42.7406 75.0442C42.7406 76.8792 41.6357 77.9612 40.2426 77.9612C39.0233 77.9612 38.3829 77.2281 37.8591 76.4731C37.3749 75.7005 36.9479 75.3142 36.2701 75.3142C35.8233 75.3142 35.4579 75.4832 35.1454 75.8892C35.1432 77.9722 35.108 79.8401 35.108 81.9033C35.108 85.3998 35.1278 87.4872 35.2423 89.186C35.2995 90.132 35.7661 90.6544 36.6948 90.9815C36.9655 91.0781 37.0624 91.1351 37.0624 91.3305C37.0624 91.5236 36.8885 91.6202 36.675 91.6202H27.5899C27.3962 91.6202 27.2025 91.5807 27.2025 91.37C27.2025 91.1768 27.3368 91.1 27.5899 90.9266C28.2678 90.4437 28.501 90.0179 28.5979 88.8985C28.7145 87.4872 28.7519 85.402 28.7519 81.9055C28.7519 79.2584 28.7145 76.9209 28.5979 75.7619C28.501 74.7369 27.9794 74.2365 27.262 73.927C26.9715 73.8107 26.8746 73.7338 26.8746 73.578C26.8746 73.4243 26.9715 73.308 27.1453 73.2685L33.8667 71.8967C34.3707 71.8001 34.5644 72.0328 34.6216 72.4959L34.9584 75.1891C35.8057 73.0205 37.3463 71.8967 39.3667 71.8967C41.2902 71.8945 42.7406 73.0161 42.7406 75.0442ZM25.9371 91.2339C25.9371 91.4644 25.783 91.6202 25.4529 91.6202H14.7589C14.4882 91.6202 14.3143 91.4666 14.3143 91.2339C14.3143 91.021 14.4684 90.8476 14.8558 90.6742C15.9804 90.1716 16.2313 89.535 16.2313 88.5868C16.2313 87.9876 16.0574 87.3708 15.9012 86.9055C15.6393 86.0341 15.1573 84.5811 14.4948 82.9459H6.85786C6.10517 84.783 5.70681 85.7883 5.40089 86.6553C5.18741 87.2721 5.01354 87.9306 5.01354 88.6263C5.01354 89.5153 5.53735 90.4437 6.42869 90.8103C6.75882 90.9442 6.93269 91.0407 6.93269 91.2537C6.93269 91.4468 6.77863 91.6202 6.46831 91.6202H0.367542C0.15406 91.6202 0 91.4841 0 91.291C0 91.0408 0.213483 90.9244 0.715277 90.5579C1.48998 89.9982 2.11062 89.3024 2.47816 88.4134C3.85369 85.1672 8.36544 73.9445 12.0277 64.8049C12.2213 64.3023 12.5119 64.0521 12.996 64.0521H13.8302C14.3342 64.0521 14.6049 64.265 14.8183 64.8049C17.8203 72.6473 21.8105 83.409 23.5931 87.8515C24.348 89.726 24.7552 90.1694 25.356 90.5952C25.6862 90.8278 25.9371 90.9815 25.9371 91.2339ZM10.925 72.5903C9.66175 75.661 8.78581 78.1324 7.71399 80.9354H13.7795C12.7892 78.0798 11.9396 75.4415 10.925 72.5903ZM52.9613 73.0161C54.1036 73.0161 54.4711 73.9621 54.8981 75.4898C55.3251 77.0547 55.9633 78.2334 57.6866 78.2334C58.9454 78.2334 60.0305 77.2676 60.0305 75.7795C60.0305 73.3651 57.2992 71.9164 53.2122 71.9164C47.556 71.9164 42.8682 75.6632 42.8682 82.3862C42.8682 87.7945 46.2399 92.0833 51.4692 92.0833C55.8863 92.0833 58.6175 90.0925 59.9138 86.7124C59.9534 86.6158 59.9733 86.539 59.9733 86.4424C59.9733 86.3458 59.9138 86.269 59.8192 86.269C59.7422 86.269 59.6827 86.3085 59.5683 86.4051C58.5801 87.3138 57.0879 87.913 55.3647 87.913C51.7421 87.913 49.6314 84.9367 49.6314 79.9915C49.6292 75.0837 51.3129 73.0161 52.9613 73.0161ZM88.6922 70.0969C90.4903 70.0969 92.0111 68.578 92.0111 66.6486C92.0111 64.7171 90.4881 63.2202 88.6922 63.2202C86.8963 63.2202 85.3733 64.7171 85.3733 66.6486C85.3733 68.5582 86.8963 70.0969 88.6922 70.0969ZM130 86.3656C130 86.4622 129.98 86.539 129.943 86.6356C128.644 90.0179 125.933 92.0065 121.516 92.0065C116.364 92.0065 112.741 87.8142 112.741 82.3094C112.741 76.0692 116.945 71.8001 122.35 71.8001C127.405 71.8001 129.943 74.9498 129.943 77.6913C129.943 78.657 129.459 79.1202 128.413 79.1202H119.288C119.192 79.6623 119.172 80.222 119.172 80.6456C119.172 84.5679 121.456 87.8318 125.119 87.8318C126.842 87.8318 128.605 87.2326 129.593 86.3239C129.709 86.2273 129.767 86.19 129.846 86.19C129.941 86.1922 130 86.269 130 86.3656ZM119.326 77.8647H123.18C124.265 77.8647 124.672 77.5552 124.575 76.1834C124.458 74.4647 123.761 72.801 122.328 72.801C120.701 72.8032 119.636 74.9871 119.326 77.8647ZM82.0852 91.0012C81.3501 90.6918 80.943 89.9784 80.8461 88.8568C80.7295 87.485 80.7295 85.3976 80.7295 81.9011C80.7295 80.8388 80.7669 79.2167 80.7669 77.362C80.7867 73.9424 78.5 71.7606 74.9567 71.7606C72.5665 71.7606 70.5109 72.711 68.8185 74.7128C68.8295 69.0192 68.8735 65.3888 68.8735 63.8787C68.8735 63.4155 68.6226 63.2026 68.1186 63.2794C65.6581 63.6284 63.5276 64.0323 61.2233 64.671C60.99 64.7281 60.8734 64.8247 60.8734 64.9805C60.8734 65.1363 61.0099 65.2307 61.2806 65.3097C61.9012 65.5029 62.2093 66.1416 62.3062 67.1645C62.4228 68.3234 62.48 70.0815 62.4602 77.1908C62.4404 84.3002 62.4228 87.4872 62.3062 88.8985C62.2093 90.0201 61.8616 90.6566 61.1639 90.9859C60.913 91.1022 60.7568 91.179 60.7568 91.3722C60.7568 91.5851 60.9504 91.6224 61.1441 91.6224H69.9959C70.2666 91.6224 70.4229 91.5456 70.4229 91.3524C70.4229 91.1593 70.249 91.122 70.0157 91.0034C69.3577 90.6742 69.0276 89.9806 68.9307 88.859C68.8141 87.4872 68.8141 84.3177 68.8141 77.1908C68.8141 76.7694 68.8141 76.359 68.8141 75.9573C69.6328 75.0639 70.5197 74.603 71.6224 74.603C73.3654 74.603 74.2172 75.9946 74.314 77.79C74.3536 78.5056 74.3712 81.0934 74.3712 81.9055C74.3712 85.402 74.3316 87.4894 74.2172 88.8985C74.1203 90.0201 73.81 90.6764 73.0749 91.0034C72.824 91.1198 72.6678 91.1768 72.6678 91.37C72.6678 91.5829 72.8615 91.6202 73.0551 91.6202H82.0632C82.3339 91.6202 82.4902 91.5434 82.4902 91.3502C82.4924 91.1549 82.3185 91.0978 82.0852 91.0012ZM113.428 72.9963C113.778 72.8032 114.048 72.6298 114.048 72.4937C114.048 72.3401 113.951 72.1842 113.778 72.1842H108.082C107.928 72.1842 107.791 72.3379 107.791 72.5135C107.791 72.6869 107.925 72.8427 108.236 72.9195C109.281 73.1895 109.765 73.7316 109.765 74.6008C109.765 75.2769 109.572 75.9726 109.261 76.7453L106.143 84.5701L103.161 76.765C102.89 76.0495 102.657 75.4305 102.657 74.7172C102.657 73.848 103.121 73.1917 104.052 72.9788C104.497 72.8822 104.67 72.7088 104.67 72.5332C104.67 72.3203 104.516 72.1864 104.303 72.1864H94.1129C93.9786 72.1864 93.8422 72.3203 93.8422 72.4959C93.8422 72.7264 94.1129 72.8822 94.3836 73.0951C95.1979 73.6943 95.4686 74.254 96.1069 75.7619L102.498 90.694C102.866 91.5456 103.233 91.9297 103.913 91.9297C104.593 91.9297 104.998 91.5434 105.346 90.694L111.449 76.1285C112.285 74.1157 112.613 73.4595 113.428 72.9963ZM92.9817 90.9639C92.3434 90.6149 91.9935 89.9784 91.8966 88.859C91.78 87.4872 91.78 85.3998 91.78 81.9033C91.78 77.6342 91.8372 74.1948 91.8372 72.4762C91.8372 72.013 91.5863 71.8001 91.0823 71.8769C88.6812 72.2237 86.4143 72.6891 83.9339 73.3453C83.7006 73.4024 83.5664 73.5187 83.5664 73.6746C83.5664 73.8282 83.7006 73.9248 83.9735 74.0038C84.8847 74.254 85.173 74.8357 85.2699 75.8585C85.3865 77.0174 85.4239 79.2584 85.4239 81.9055C85.4239 85.402 85.3843 87.4894 85.2699 88.8985C85.173 90.0201 84.8055 90.5996 84.1276 90.9661C83.8767 91.1 83.7205 91.179 83.7205 91.3722C83.7205 91.5851 83.9141 91.6224 84.1078 91.6224H92.9596C93.2303 91.6224 93.3866 91.5456 93.3866 91.3524C93.3888 91.1549 93.2149 91.0781 92.9817 90.9639ZM73.2862 58.725C75.3396 58.725 76.8318 57.6056 76.8318 55.9813C76.8318 54.7259 75.9602 53.7798 74.3316 53.1806L70.9599 51.9251C67.9778 50.8035 66.2721 49.1442 66.2721 46.304C66.2721 42.2478 69.8749 39.9299 73.8848 39.9299C75.8612 39.9299 77.0233 40.2197 78.3218 41.1657L78.7487 40.5291C78.9424 40.2592 79.1361 40.1428 79.3496 40.1428C79.6203 40.1428 79.8139 40.336 79.8139 40.6455V45.1472C79.8139 45.437 79.6599 45.6104 79.4266 45.6104C79.2329 45.6104 79.0767 45.494 78.9424 45.1472C78.0114 42.8667 76.2508 41.361 74.1005 41.361C72.1242 41.361 70.8653 42.3268 70.8653 43.6986C70.8653 44.818 71.5431 45.4765 73.2686 46.1328L77.0255 47.5814C79.5256 48.5472 81.2687 50.189 81.2687 53.0884C81.2687 57.667 77.5493 60.1583 72.9583 60.1583C70.8279 60.1583 69.0848 59.502 67.7863 58.2465L67.2449 59.2123C67.1084 59.4625 66.8179 59.6951 66.567 59.6951C66.3161 59.6951 66.1026 59.5217 66.1026 59.232V53.9576C66.1026 53.5516 66.3161 53.3211 66.6264 53.3211C66.9764 53.3211 67.0908 53.6108 67.2075 53.9006C68.3277 56.8308 70.6518 58.725 73.2862 58.725ZM51.1346 32.0063C51.1346 35.3491 51.0774 40.2943 51.018 41.8197C52.1602 40.6411 53.9627 39.9255 55.6288 39.9255C60.7612 39.9255 64.2099 43.0555 64.2099 50.0682C64.2099 56.2316 60.1999 60.1714 54.5636 60.1714C52.1602 60.1714 50.3995 59.5152 48.6939 58.297L46.1937 59.5327C45.6699 59.8027 44.9546 60.1122 44.6245 60.1122C44.488 60.1122 44.4308 60.0354 44.4308 59.919C44.4308 58.8172 44.5079 47.7285 44.5079 45.1407C44.5079 40.0594 44.488 36.9097 44.3736 35.2877C44.2966 34.2648 43.8696 33.6854 42.9585 33.433C42.6877 33.3561 42.5513 33.2596 42.5513 33.1037C42.5513 32.9501 42.6679 32.8535 42.9012 32.7943C45.5357 32.1182 47.512 31.7714 50.3775 31.4027C50.8837 31.35 51.1346 31.5431 51.1346 32.0063ZM50.9608 54.2232C50.9608 56.7737 51.8895 58.7448 53.7492 58.7448C55.8995 58.7448 57.2354 55.2482 57.2354 50.0704C57.2354 44.8158 55.8973 41.9383 53.6128 41.9383C52.508 41.9383 51.5022 42.6143 50.9211 43.5603L50.9608 54.2232ZM32.007 59.052C33.8469 59.052 35.2797 56.541 35.2797 49.9717C35.2797 43.422 33.8469 40.911 32.007 40.911C30.1473 40.911 28.7145 43.422 28.7145 49.9717C28.7123 56.541 30.1473 59.052 32.007 59.052ZM32.007 60.211C25.827 60.211 21.7973 55.6324 21.7973 50.0682C21.7973 44.5041 25.827 39.9255 32.007 39.9255C38.1672 39.9255 42.2146 44.5041 42.2146 50.0682C42.2146 55.6324 38.1672 60.211 32.007 60.211ZM12.47 46.2645C12.47 41.0296 12.316 38.7293 12.1993 36.2183C12.1223 34.5765 11.7922 33.6305 10.8436 33.0115C10.5135 32.7986 10.3594 32.7218 10.3594 32.5484C10.3594 32.375 10.5333 32.318 10.7468 32.318H20.9741C21.2074 32.318 21.3813 32.3377 21.3813 32.5484C21.3813 32.7218 21.1678 32.8579 20.9169 33.0115C19.9683 33.5712 19.658 34.5195 19.5414 36.1788C19.3477 38.6898 19.3103 41.0274 19.3675 46.2623L19.4247 52.1161C19.482 57.5639 15.3179 60.617 9.62213 60.617C4.97393 60.617 2.24267 58.703 2.24267 55.9418C2.24267 54.6271 3.15382 53.5845 4.45013 53.5845C5.80585 53.5845 6.58055 54.513 6.9679 56.1152C7.4719 58.3365 8.12995 59.2825 9.63974 59.2825C11.5765 59.2825 12.4678 57.9875 12.4678 53.8347V46.2645H12.47ZM84.9485 9.06062C83.3221 9.06062 82.2569 11.2424 81.9466 14.1221H85.8003C86.8853 14.1221 87.2924 13.8126 87.1956 12.4408C87.079 10.7222 86.3813 9.06062 84.9485 9.06062ZM75.3594 18.5646C75.3594 12.3245 79.563 8.05534 84.9683 8.05534C90.0237 8.05534 92.5613 11.205 92.5613 13.9465C92.5613 14.9123 92.0771 15.3776 91.0317 15.3776H81.907C81.8101 15.9175 81.7903 16.4794 81.7903 16.9031C81.7903 20.8254 84.0748 24.0892 87.737 24.0892C89.4603 24.0892 91.2232 23.49 92.2113 22.5835C92.328 22.4869 92.3852 22.4474 92.4622 22.4474C92.5591 22.4474 92.6163 22.5242 92.6163 22.6208C92.6163 22.7174 92.5965 22.7942 92.5591 22.8908C91.2628 26.2732 88.5491 28.2617 84.132 28.2617C78.982 28.2639 75.3594 24.0717 75.3594 18.5646ZM67.9689 26.9492C67.6212 27.7986 67.2141 28.1849 66.5362 28.1849C65.8583 28.1849 65.4908 27.7986 65.121 26.9492L58.7298 12.015C58.0915 10.5071 57.8186 9.94736 57.0065 9.34815C56.7336 9.13524 56.4629 8.9816 56.4629 8.74894C56.4629 8.57554 56.5993 8.43945 56.7336 8.43945H66.9235C67.137 8.43945 67.2911 8.57334 67.2911 8.78625C67.2911 8.95965 67.1172 9.13524 66.6704 9.23182C65.7395 9.44473 65.2751 10.101 65.2751 10.9702C65.2751 11.6835 65.5084 12.3025 65.7791 13.0181L68.7635 20.8232L71.8821 12.9983C72.1924 12.2257 72.3861 11.5299 72.3861 10.8539C72.3861 9.98468 71.9019 9.44253 70.8565 9.17256C70.5462 9.09573 70.4119 8.93989 70.4119 8.7665C70.4119 8.5931 70.5462 8.43726 70.7024 8.43726H76.3982C76.5721 8.43726 76.6689 8.5909 76.6689 8.74674C76.6689 8.88063 76.3982 9.05623 76.0505 9.24938C75.2362 9.71251 74.9082 10.371 74.0741 12.3793L67.9689 26.9492ZM48.7819 9.06062C47.1555 9.06062 46.0903 11.2424 45.7799 14.1221H49.6336C50.7187 14.1221 51.1258 13.8126 51.029 12.4408C50.9145 10.7222 50.2147 9.06062 48.7819 9.06062ZM39.1928 18.5646C39.1928 12.3245 43.3964 8.05534 48.8017 8.05534C53.8571 8.05534 56.3947 11.205 56.3947 13.9465C56.3947 14.9123 55.9105 15.3776 54.8651 15.3776H45.7403C45.6435 15.9175 45.6237 16.4794 45.6237 16.9031C45.6237 20.8254 47.9104 24.0892 51.5704 24.0892C53.2937 24.0892 55.0565 23.49 56.0447 22.5835C56.1614 22.4869 56.2186 22.4474 56.2978 22.4474C56.3947 22.4474 56.4519 22.5242 56.4519 22.6208C56.4519 22.7174 56.4321 22.7942 56.3947 22.8908C55.0962 26.2732 52.3847 28.2617 47.9676 28.2617C42.8154 28.2639 39.1928 24.0717 39.1928 18.5646ZM32.9666 3.4965C33.1801 3.34286 33.3935 3.1102 33.6246 3.1102C33.935 3.1102 34.012 3.3231 34.012 3.6699L33.9151 8.67431C33.9151 8.77089 33.9548 8.8104 34.0318 8.8104L37.4211 8.71382C37.9449 8.69407 38.3895 9.0233 38.3895 9.54569C38.3895 10.0681 37.9625 10.3951 37.4211 10.3776L34.0318 10.281C33.9548 10.281 33.9151 10.3183 33.9151 10.4149L33.7985 22.026C33.7787 23.8609 34.593 24.7499 36.083 24.7499C37.0514 24.7499 37.8459 24.4009 38.253 24.0168C38.3895 23.8807 38.4467 23.8236 38.5435 23.8236C38.6404 23.8236 38.6976 23.9202 38.6404 24.1902C38.1958 26.2183 35.8321 28.2661 32.6166 28.2661C29.1877 28.2661 27.0969 26.4312 27.1343 22.8184L27.2884 10.4149C27.2884 10.3381 27.251 10.2985 27.1717 10.2985H26.0669C25.6796 10.2985 25.3692 10.1054 25.3692 9.67958C25.3692 9.3701 25.6223 9.15719 25.9701 8.88722L32.9666 3.4965ZM13.6893 28.3408C11.0747 28.3408 8.63395 27.5286 6.83145 25.8495L6.05675 27.1818C5.84327 27.5484 5.61218 27.6845 5.43831 27.6845C5.26444 27.6845 5.03115 27.5682 5.03115 27.2982V20.6322C5.03115 20.112 5.34147 19.8025 5.80585 19.8025C6.27023 19.8025 6.48371 20.2086 6.58055 20.5949C7.39487 23.918 10.4541 26.7582 13.6893 26.7582C16.6539 26.7582 18.6478 25.0769 18.6478 22.3728C18.6478 20.3249 17.4462 18.8368 14.968 17.544L11.6953 15.8253C8.42046 14.1023 5.61218 11.9008 5.61218 7.82488C5.61218 2.7634 10.0095 0 14.7347 0C17.3295 0 19.3257 0.579458 20.721 1.91397L21.3021 1.00527C21.4957 0.715543 21.652 0.465322 21.9029 0.465322C22.134 0.465322 22.2902 0.618966 22.2902 0.891136V6.53207C22.2902 6.91838 22.0195 7.18835 21.652 7.18835C21.2448 7.18835 21.0137 6.89862 20.8575 6.39599C19.9661 3.4965 17.7961 1.66155 15.2959 1.66155C12.7209 1.66155 10.958 3.1102 10.958 5.15805C10.958 7.08958 12.3908 8.17167 14.387 9.1967L18.9405 11.5343C22.6006 13.4087 24.0157 15.4171 24.0157 18.7402C24.0135 24.594 19.6932 28.3408 13.6893 28.3408Z" fill="#111111"/>
</svg>
